G04 #@! TF.FileFunction,Copper,L1,Top,Signal*
%FSLAX46Y46*%
G04 Gerber Fmt 4.6, Leading zero omitted, Abs format (unit mm)*
G04 Created by KiCad (PCBNEW 4.0.7-e2-6376~58~ubuntu16.04.1) date Thu Apr  5 16:02:04 2018*
%MOMM*%
%LPD*%
G01*
G04 APERTURE LIST*
%ADD10C,0.100000*%
%ADD11R,1.600000X1.600000*%
%ADD12C,1.600000*%
%ADD13R,1.250000X1.000000*%
%ADD14R,3.500000X3.500000*%
%ADD15R,1.700000X1.700000*%
%ADD16O,1.700000X1.700000*%
%ADD17R,1.800000X1.800000*%
%ADD18O,1.800000X1.800000*%
%ADD19C,1.200000*%
%ADD20C,0.254000*%
G04 APERTURE END LIST*
D10*
D11*
X146050000Y-101600000D03*
D12*
X146050000Y-103600000D03*
D13*
X151130000Y-105680000D03*
X151130000Y-107680000D03*
X165100000Y-100600000D03*
X165100000Y-102600000D03*
X170180000Y-100600000D03*
X170180000Y-102600000D03*
D14*
X139700000Y-101600000D03*
X133700000Y-101600000D03*
X136700000Y-106300000D03*
D15*
X184150000Y-102870000D03*
D16*
X184150000Y-105410000D03*
D17*
X157480000Y-105410000D03*
D18*
X157480000Y-102870000D03*
X157480000Y-100330000D03*
D19*
X146050000Y-101600000D02*
X147050000Y-101600000D01*
X147050000Y-101600000D02*
X151130000Y-105680000D01*
X146050000Y-101600000D02*
X153670000Y-101600000D01*
X153670000Y-101600000D02*
X157480000Y-105410000D01*
X139700000Y-101600000D02*
X146050000Y-101600000D01*
X181880000Y-100600000D02*
X184150000Y-102870000D01*
X170180000Y-100600000D02*
X181880000Y-100600000D01*
X157480000Y-100330000D02*
X164830000Y-100330000D01*
X164830000Y-100330000D02*
X165100000Y-100600000D01*
X165100000Y-100600000D02*
X170180000Y-100600000D01*
X180340000Y-100330000D02*
X170450000Y-100330000D01*
X170450000Y-100330000D02*
X170180000Y-100600000D01*
D20*
G36*
X186563000Y-111633000D02*
X127127000Y-111633000D01*
X127127000Y-101885750D01*
X131315000Y-101885750D01*
X131315000Y-103476310D01*
X131411673Y-103709699D01*
X131590302Y-103888327D01*
X131823691Y-103985000D01*
X133414250Y-103985000D01*
X133573000Y-103826250D01*
X133573000Y-101727000D01*
X133827000Y-101727000D01*
X133827000Y-103826250D01*
X133985750Y-103985000D01*
X134655378Y-103985000D01*
X134498559Y-104085910D01*
X134353569Y-104298110D01*
X134302560Y-104550000D01*
X134302560Y-108050000D01*
X134346838Y-108285317D01*
X134485910Y-108501441D01*
X134698110Y-108646431D01*
X134950000Y-108697440D01*
X138450000Y-108697440D01*
X138685317Y-108653162D01*
X138901441Y-108514090D01*
X139046431Y-108301890D01*
X139097440Y-108050000D01*
X139097440Y-107965750D01*
X149870000Y-107965750D01*
X149870000Y-108306309D01*
X149966673Y-108539698D01*
X150145301Y-108718327D01*
X150378690Y-108815000D01*
X150844250Y-108815000D01*
X151003000Y-108656250D01*
X151003000Y-107807000D01*
X151257000Y-107807000D01*
X151257000Y-108656250D01*
X151415750Y-108815000D01*
X151881310Y-108815000D01*
X152114699Y-108718327D01*
X152293327Y-108539698D01*
X152390000Y-108306309D01*
X152390000Y-107965750D01*
X152231250Y-107807000D01*
X151257000Y-107807000D01*
X151003000Y-107807000D01*
X150028750Y-107807000D01*
X149870000Y-107965750D01*
X139097440Y-107965750D01*
X139097440Y-104607745D01*
X145221861Y-104607745D01*
X145295995Y-104853864D01*
X145833223Y-105046965D01*
X146403454Y-105019778D01*
X146804005Y-104853864D01*
X146878139Y-104607745D01*
X146050000Y-103779605D01*
X145221861Y-104607745D01*
X139097440Y-104607745D01*
X139097440Y-104550000D01*
X139053162Y-104314683D01*
X138914090Y-104098559D01*
X138766097Y-103997440D01*
X141450000Y-103997440D01*
X141685317Y-103953162D01*
X141901441Y-103814090D01*
X142046431Y-103601890D01*
X142097440Y-103350000D01*
X142097440Y-102835000D01*
X144775331Y-102835000D01*
X144785910Y-102851441D01*
X144792548Y-102855977D01*
X144603035Y-103383223D01*
X144630222Y-103953454D01*
X144796136Y-104354005D01*
X145042255Y-104428139D01*
X145870395Y-103600000D01*
X145856252Y-103585858D01*
X146035858Y-103406253D01*
X146050000Y-103420395D01*
X146064143Y-103406253D01*
X146243748Y-103585858D01*
X146229605Y-103600000D01*
X147057745Y-104428139D01*
X147303864Y-104354005D01*
X147496965Y-103816777D01*
X147495801Y-103792355D01*
X149857560Y-106154114D01*
X149857560Y-106180000D01*
X149901838Y-106415317D01*
X150040910Y-106631441D01*
X150109006Y-106677969D01*
X149966673Y-106820302D01*
X149870000Y-107053691D01*
X149870000Y-107394250D01*
X150028750Y-107553000D01*
X151003000Y-107553000D01*
X151003000Y-107533000D01*
X151257000Y-107533000D01*
X151257000Y-107553000D01*
X152231250Y-107553000D01*
X152390000Y-107394250D01*
X152390000Y-107053691D01*
X152293327Y-106820302D01*
X152152090Y-106679064D01*
X152206441Y-106644090D01*
X152351431Y-106431890D01*
X152402440Y-106180000D01*
X152402440Y-105180000D01*
X152358162Y-104944683D01*
X152219090Y-104728559D01*
X152006890Y-104583569D01*
X151755000Y-104532560D01*
X151729114Y-104532560D01*
X150031554Y-102835000D01*
X153158446Y-102835000D01*
X155932560Y-105609114D01*
X155932560Y-106310000D01*
X155976838Y-106545317D01*
X156115910Y-106761441D01*
X156328110Y-106906431D01*
X156580000Y-106957440D01*
X158380000Y-106957440D01*
X158615317Y-106913162D01*
X158831441Y-106774090D01*
X158976431Y-106561890D01*
X159027440Y-106310000D01*
X159027440Y-105766890D01*
X182708524Y-105766890D01*
X182878355Y-106176924D01*
X183268642Y-106605183D01*
X183793108Y-106851486D01*
X184023000Y-106730819D01*
X184023000Y-105537000D01*
X184277000Y-105537000D01*
X184277000Y-106730819D01*
X184506892Y-106851486D01*
X185031358Y-106605183D01*
X185421645Y-106176924D01*
X185591476Y-105766890D01*
X185470155Y-105537000D01*
X184277000Y-105537000D01*
X184023000Y-105537000D01*
X182829845Y-105537000D01*
X182708524Y-105766890D01*
X159027440Y-105766890D01*
X159027440Y-104510000D01*
X158983162Y-104274683D01*
X158844090Y-104058559D01*
X158631890Y-103913569D01*
X158580854Y-103903234D01*
X158717966Y-103777576D01*
X158971046Y-103234742D01*
X158850997Y-102997000D01*
X157607000Y-102997000D01*
X157607000Y-103017000D01*
X157353000Y-103017000D01*
X157353000Y-102997000D01*
X157333000Y-102997000D01*
X157333000Y-102885750D01*
X163840000Y-102885750D01*
X163840000Y-103226309D01*
X163936673Y-103459698D01*
X164115301Y-103638327D01*
X164348690Y-103735000D01*
X164814250Y-103735000D01*
X164973000Y-103576250D01*
X164973000Y-102727000D01*
X165227000Y-102727000D01*
X165227000Y-103576250D01*
X165385750Y-103735000D01*
X165851310Y-103735000D01*
X166084699Y-103638327D01*
X166263327Y-103459698D01*
X166360000Y-103226309D01*
X166360000Y-102885750D01*
X168920000Y-102885750D01*
X168920000Y-103226309D01*
X169016673Y-103459698D01*
X169195301Y-103638327D01*
X169428690Y-103735000D01*
X169894250Y-103735000D01*
X170053000Y-103576250D01*
X170053000Y-102727000D01*
X170307000Y-102727000D01*
X170307000Y-103576250D01*
X170465750Y-103735000D01*
X170931310Y-103735000D01*
X171164699Y-103638327D01*
X171343327Y-103459698D01*
X171440000Y-103226309D01*
X171440000Y-102885750D01*
X171281250Y-102727000D01*
X170307000Y-102727000D01*
X170053000Y-102727000D01*
X169078750Y-102727000D01*
X168920000Y-102885750D01*
X166360000Y-102885750D01*
X166201250Y-102727000D01*
X165227000Y-102727000D01*
X164973000Y-102727000D01*
X163998750Y-102727000D01*
X163840000Y-102885750D01*
X157333000Y-102885750D01*
X157333000Y-102743000D01*
X157353000Y-102743000D01*
X157353000Y-102723000D01*
X157607000Y-102723000D01*
X157607000Y-102743000D01*
X158850997Y-102743000D01*
X158971046Y-102505258D01*
X158717966Y-101962424D01*
X158327418Y-101604501D01*
X158386536Y-101565000D01*
X164030754Y-101565000D01*
X164079006Y-101597969D01*
X163936673Y-101740302D01*
X163840000Y-101973691D01*
X163840000Y-102314250D01*
X163998750Y-102473000D01*
X164973000Y-102473000D01*
X164973000Y-102453000D01*
X165227000Y-102453000D01*
X165227000Y-102473000D01*
X166201250Y-102473000D01*
X166360000Y-102314250D01*
X166360000Y-101973691D01*
X166302552Y-101835000D01*
X168977448Y-101835000D01*
X168920000Y-101973691D01*
X168920000Y-102314250D01*
X169078750Y-102473000D01*
X170053000Y-102473000D01*
X170053000Y-102453000D01*
X170307000Y-102453000D01*
X170307000Y-102473000D01*
X171281250Y-102473000D01*
X171440000Y-102314250D01*
X171440000Y-101973691D01*
X171382552Y-101835000D01*
X181368446Y-101835000D01*
X182652560Y-103119114D01*
X182652560Y-103720000D01*
X182696838Y-103955317D01*
X182835910Y-104171441D01*
X183048110Y-104316431D01*
X183156107Y-104338301D01*
X182878355Y-104643076D01*
X182708524Y-105053110D01*
X182829845Y-105283000D01*
X184023000Y-105283000D01*
X184023000Y-105263000D01*
X184277000Y-105263000D01*
X184277000Y-105283000D01*
X185470155Y-105283000D01*
X185591476Y-105053110D01*
X185421645Y-104643076D01*
X185145499Y-104340063D01*
X185235317Y-104323162D01*
X185451441Y-104184090D01*
X185596431Y-103971890D01*
X185647440Y-103720000D01*
X185647440Y-102020000D01*
X185603162Y-101784683D01*
X185464090Y-101568559D01*
X185251890Y-101423569D01*
X185000000Y-101372560D01*
X184399114Y-101372560D01*
X182753277Y-99726723D01*
X182352614Y-99459009D01*
X181880000Y-99365000D01*
X181076004Y-99365000D01*
X180812614Y-99189009D01*
X180340000Y-99095000D01*
X170450000Y-99095000D01*
X169977386Y-99189009D01*
X169713996Y-99365000D01*
X165566004Y-99365000D01*
X165302614Y-99189009D01*
X164830000Y-99095000D01*
X158386536Y-99095000D01*
X158067419Y-98881773D01*
X157480000Y-98764928D01*
X156892581Y-98881773D01*
X156394591Y-99214519D01*
X156061845Y-99712509D01*
X155945000Y-100299928D01*
X155945000Y-100360072D01*
X156061845Y-100947491D01*
X156394591Y-101445481D01*
X156632582Y-101604501D01*
X156242034Y-101962424D01*
X156094794Y-102278240D01*
X154543277Y-100726723D01*
X154142614Y-100459009D01*
X153670000Y-100365000D01*
X147324669Y-100365000D01*
X147314090Y-100348559D01*
X147101890Y-100203569D01*
X146850000Y-100152560D01*
X145250000Y-100152560D01*
X145014683Y-100196838D01*
X144798559Y-100335910D01*
X144778683Y-100365000D01*
X142097440Y-100365000D01*
X142097440Y-99850000D01*
X142053162Y-99614683D01*
X141914090Y-99398559D01*
X141701890Y-99253569D01*
X141450000Y-99202560D01*
X137950000Y-99202560D01*
X137714683Y-99246838D01*
X137498559Y-99385910D01*
X137353569Y-99598110D01*
X137302560Y-99850000D01*
X137302560Y-103350000D01*
X137346838Y-103585317D01*
X137485910Y-103801441D01*
X137633903Y-103902560D01*
X135775337Y-103902560D01*
X135809698Y-103888327D01*
X135988327Y-103709699D01*
X136085000Y-103476310D01*
X136085000Y-101885750D01*
X135926250Y-101727000D01*
X133827000Y-101727000D01*
X133573000Y-101727000D01*
X131473750Y-101727000D01*
X131315000Y-101885750D01*
X127127000Y-101885750D01*
X127127000Y-99723690D01*
X131315000Y-99723690D01*
X131315000Y-101314250D01*
X131473750Y-101473000D01*
X133573000Y-101473000D01*
X133573000Y-99373750D01*
X133827000Y-99373750D01*
X133827000Y-101473000D01*
X135926250Y-101473000D01*
X136085000Y-101314250D01*
X136085000Y-99723690D01*
X135988327Y-99490301D01*
X135809698Y-99311673D01*
X135576309Y-99215000D01*
X133985750Y-99215000D01*
X133827000Y-99373750D01*
X133573000Y-99373750D01*
X133414250Y-99215000D01*
X131823691Y-99215000D01*
X131590302Y-99311673D01*
X131411673Y-99490301D01*
X131315000Y-99723690D01*
X127127000Y-99723690D01*
X127127000Y-96647000D01*
X186563000Y-96647000D01*
X186563000Y-111633000D01*
X186563000Y-111633000D01*
G37*
X186563000Y-111633000D02*
X127127000Y-111633000D01*
X127127000Y-101885750D01*
X131315000Y-101885750D01*
X131315000Y-103476310D01*
X131411673Y-103709699D01*
X131590302Y-103888327D01*
X131823691Y-103985000D01*
X133414250Y-103985000D01*
X133573000Y-103826250D01*
X133573000Y-101727000D01*
X133827000Y-101727000D01*
X133827000Y-103826250D01*
X133985750Y-103985000D01*
X134655378Y-103985000D01*
X134498559Y-104085910D01*
X134353569Y-104298110D01*
X134302560Y-104550000D01*
X134302560Y-108050000D01*
X134346838Y-108285317D01*
X134485910Y-108501441D01*
X134698110Y-108646431D01*
X134950000Y-108697440D01*
X138450000Y-108697440D01*
X138685317Y-108653162D01*
X138901441Y-108514090D01*
X139046431Y-108301890D01*
X139097440Y-108050000D01*
X139097440Y-107965750D01*
X149870000Y-107965750D01*
X149870000Y-108306309D01*
X149966673Y-108539698D01*
X150145301Y-108718327D01*
X150378690Y-108815000D01*
X150844250Y-108815000D01*
X151003000Y-108656250D01*
X151003000Y-107807000D01*
X151257000Y-107807000D01*
X151257000Y-108656250D01*
X151415750Y-108815000D01*
X151881310Y-108815000D01*
X152114699Y-108718327D01*
X152293327Y-108539698D01*
X152390000Y-108306309D01*
X152390000Y-107965750D01*
X152231250Y-107807000D01*
X151257000Y-107807000D01*
X151003000Y-107807000D01*
X150028750Y-107807000D01*
X149870000Y-107965750D01*
X139097440Y-107965750D01*
X139097440Y-104607745D01*
X145221861Y-104607745D01*
X145295995Y-104853864D01*
X145833223Y-105046965D01*
X146403454Y-105019778D01*
X146804005Y-104853864D01*
X146878139Y-104607745D01*
X146050000Y-103779605D01*
X145221861Y-104607745D01*
X139097440Y-104607745D01*
X139097440Y-104550000D01*
X139053162Y-104314683D01*
X138914090Y-104098559D01*
X138766097Y-103997440D01*
X141450000Y-103997440D01*
X141685317Y-103953162D01*
X141901441Y-103814090D01*
X142046431Y-103601890D01*
X142097440Y-103350000D01*
X142097440Y-102835000D01*
X144775331Y-102835000D01*
X144785910Y-102851441D01*
X144792548Y-102855977D01*
X144603035Y-103383223D01*
X144630222Y-103953454D01*
X144796136Y-104354005D01*
X145042255Y-104428139D01*
X145870395Y-103600000D01*
X145856252Y-103585858D01*
X146035858Y-103406253D01*
X146050000Y-103420395D01*
X146064143Y-103406253D01*
X146243748Y-103585858D01*
X146229605Y-103600000D01*
X147057745Y-104428139D01*
X147303864Y-104354005D01*
X147496965Y-103816777D01*
X147495801Y-103792355D01*
X149857560Y-106154114D01*
X149857560Y-106180000D01*
X149901838Y-106415317D01*
X150040910Y-106631441D01*
X150109006Y-106677969D01*
X149966673Y-106820302D01*
X149870000Y-107053691D01*
X149870000Y-107394250D01*
X150028750Y-107553000D01*
X151003000Y-107553000D01*
X151003000Y-107533000D01*
X151257000Y-107533000D01*
X151257000Y-107553000D01*
X152231250Y-107553000D01*
X152390000Y-107394250D01*
X152390000Y-107053691D01*
X152293327Y-106820302D01*
X152152090Y-106679064D01*
X152206441Y-106644090D01*
X152351431Y-106431890D01*
X152402440Y-106180000D01*
X152402440Y-105180000D01*
X152358162Y-104944683D01*
X152219090Y-104728559D01*
X152006890Y-104583569D01*
X151755000Y-104532560D01*
X151729114Y-104532560D01*
X150031554Y-102835000D01*
X153158446Y-102835000D01*
X155932560Y-105609114D01*
X155932560Y-106310000D01*
X155976838Y-106545317D01*
X156115910Y-106761441D01*
X156328110Y-106906431D01*
X156580000Y-106957440D01*
X158380000Y-106957440D01*
X158615317Y-106913162D01*
X158831441Y-106774090D01*
X158976431Y-106561890D01*
X159027440Y-106310000D01*
X159027440Y-105766890D01*
X182708524Y-105766890D01*
X182878355Y-106176924D01*
X183268642Y-106605183D01*
X183793108Y-106851486D01*
X184023000Y-106730819D01*
X184023000Y-105537000D01*
X184277000Y-105537000D01*
X184277000Y-106730819D01*
X184506892Y-106851486D01*
X185031358Y-106605183D01*
X185421645Y-106176924D01*
X185591476Y-105766890D01*
X185470155Y-105537000D01*
X184277000Y-105537000D01*
X184023000Y-105537000D01*
X182829845Y-105537000D01*
X182708524Y-105766890D01*
X159027440Y-105766890D01*
X159027440Y-104510000D01*
X158983162Y-104274683D01*
X158844090Y-104058559D01*
X158631890Y-103913569D01*
X158580854Y-103903234D01*
X158717966Y-103777576D01*
X158971046Y-103234742D01*
X158850997Y-102997000D01*
X157607000Y-102997000D01*
X157607000Y-103017000D01*
X157353000Y-103017000D01*
X157353000Y-102997000D01*
X157333000Y-102997000D01*
X157333000Y-102885750D01*
X163840000Y-102885750D01*
X163840000Y-103226309D01*
X163936673Y-103459698D01*
X164115301Y-103638327D01*
X164348690Y-103735000D01*
X164814250Y-103735000D01*
X164973000Y-103576250D01*
X164973000Y-102727000D01*
X165227000Y-102727000D01*
X165227000Y-103576250D01*
X165385750Y-103735000D01*
X165851310Y-103735000D01*
X166084699Y-103638327D01*
X166263327Y-103459698D01*
X166360000Y-103226309D01*
X166360000Y-102885750D01*
X168920000Y-102885750D01*
X168920000Y-103226309D01*
X169016673Y-103459698D01*
X169195301Y-103638327D01*
X169428690Y-103735000D01*
X169894250Y-103735000D01*
X170053000Y-103576250D01*
X170053000Y-102727000D01*
X170307000Y-102727000D01*
X170307000Y-103576250D01*
X170465750Y-103735000D01*
X170931310Y-103735000D01*
X171164699Y-103638327D01*
X171343327Y-103459698D01*
X171440000Y-103226309D01*
X171440000Y-102885750D01*
X171281250Y-102727000D01*
X170307000Y-102727000D01*
X170053000Y-102727000D01*
X169078750Y-102727000D01*
X168920000Y-102885750D01*
X166360000Y-102885750D01*
X166201250Y-102727000D01*
X165227000Y-102727000D01*
X164973000Y-102727000D01*
X163998750Y-102727000D01*
X163840000Y-102885750D01*
X157333000Y-102885750D01*
X157333000Y-102743000D01*
X157353000Y-102743000D01*
X157353000Y-102723000D01*
X157607000Y-102723000D01*
X157607000Y-102743000D01*
X158850997Y-102743000D01*
X158971046Y-102505258D01*
X158717966Y-101962424D01*
X158327418Y-101604501D01*
X158386536Y-101565000D01*
X164030754Y-101565000D01*
X164079006Y-101597969D01*
X163936673Y-101740302D01*
X163840000Y-101973691D01*
X163840000Y-102314250D01*
X163998750Y-102473000D01*
X164973000Y-102473000D01*
X164973000Y-102453000D01*
X165227000Y-102453000D01*
X165227000Y-102473000D01*
X166201250Y-102473000D01*
X166360000Y-102314250D01*
X166360000Y-101973691D01*
X166302552Y-101835000D01*
X168977448Y-101835000D01*
X168920000Y-101973691D01*
X168920000Y-102314250D01*
X169078750Y-102473000D01*
X170053000Y-102473000D01*
X170053000Y-102453000D01*
X170307000Y-102453000D01*
X170307000Y-102473000D01*
X171281250Y-102473000D01*
X171440000Y-102314250D01*
X171440000Y-101973691D01*
X171382552Y-101835000D01*
X181368446Y-101835000D01*
X182652560Y-103119114D01*
X182652560Y-103720000D01*
X182696838Y-103955317D01*
X182835910Y-104171441D01*
X183048110Y-104316431D01*
X183156107Y-104338301D01*
X182878355Y-104643076D01*
X182708524Y-105053110D01*
X182829845Y-105283000D01*
X184023000Y-105283000D01*
X184023000Y-105263000D01*
X184277000Y-105263000D01*
X184277000Y-105283000D01*
X185470155Y-105283000D01*
X185591476Y-105053110D01*
X185421645Y-104643076D01*
X185145499Y-104340063D01*
X185235317Y-104323162D01*
X185451441Y-104184090D01*
X185596431Y-103971890D01*
X185647440Y-103720000D01*
X185647440Y-102020000D01*
X185603162Y-101784683D01*
X185464090Y-101568559D01*
X185251890Y-101423569D01*
X185000000Y-101372560D01*
X184399114Y-101372560D01*
X182753277Y-99726723D01*
X182352614Y-99459009D01*
X181880000Y-99365000D01*
X181076004Y-99365000D01*
X180812614Y-99189009D01*
X180340000Y-99095000D01*
X170450000Y-99095000D01*
X169977386Y-99189009D01*
X169713996Y-99365000D01*
X165566004Y-99365000D01*
X165302614Y-99189009D01*
X164830000Y-99095000D01*
X158386536Y-99095000D01*
X158067419Y-98881773D01*
X157480000Y-98764928D01*
X156892581Y-98881773D01*
X156394591Y-99214519D01*
X156061845Y-99712509D01*
X155945000Y-100299928D01*
X155945000Y-100360072D01*
X156061845Y-100947491D01*
X156394591Y-101445481D01*
X156632582Y-101604501D01*
X156242034Y-101962424D01*
X156094794Y-102278240D01*
X154543277Y-100726723D01*
X154142614Y-100459009D01*
X153670000Y-100365000D01*
X147324669Y-100365000D01*
X147314090Y-100348559D01*
X147101890Y-100203569D01*
X146850000Y-100152560D01*
X145250000Y-100152560D01*
X145014683Y-100196838D01*
X144798559Y-100335910D01*
X144778683Y-100365000D01*
X142097440Y-100365000D01*
X142097440Y-99850000D01*
X142053162Y-99614683D01*
X141914090Y-99398559D01*
X141701890Y-99253569D01*
X141450000Y-99202560D01*
X137950000Y-99202560D01*
X137714683Y-99246838D01*
X137498559Y-99385910D01*
X137353569Y-99598110D01*
X137302560Y-99850000D01*
X137302560Y-103350000D01*
X137346838Y-103585317D01*
X137485910Y-103801441D01*
X137633903Y-103902560D01*
X135775337Y-103902560D01*
X135809698Y-103888327D01*
X135988327Y-103709699D01*
X136085000Y-103476310D01*
X136085000Y-101885750D01*
X135926250Y-101727000D01*
X133827000Y-101727000D01*
X133573000Y-101727000D01*
X131473750Y-101727000D01*
X131315000Y-101885750D01*
X127127000Y-101885750D01*
X127127000Y-99723690D01*
X131315000Y-99723690D01*
X131315000Y-101314250D01*
X131473750Y-101473000D01*
X133573000Y-101473000D01*
X133573000Y-99373750D01*
X133827000Y-99373750D01*
X133827000Y-101473000D01*
X135926250Y-101473000D01*
X136085000Y-101314250D01*
X136085000Y-99723690D01*
X135988327Y-99490301D01*
X135809698Y-99311673D01*
X135576309Y-99215000D01*
X133985750Y-99215000D01*
X133827000Y-99373750D01*
X133573000Y-99373750D01*
X133414250Y-99215000D01*
X131823691Y-99215000D01*
X131590302Y-99311673D01*
X131411673Y-99490301D01*
X131315000Y-99723690D01*
X127127000Y-99723690D01*
X127127000Y-96647000D01*
X186563000Y-96647000D01*
X186563000Y-111633000D01*
M02*
