G04 #@! TF.FileFunction,Legend,Top*
%FSLAX46Y46*%
G04 Gerber Fmt 4.6, Leading zero omitted, Abs format (unit mm)*
G04 Created by KiCad (PCBNEW 4.0.7-e2-6376~58~ubuntu16.04.1) date Thu Apr  5 16:02:04 2018*
%MOMM*%
%LPD*%
G01*
G04 APERTURE LIST*
%ADD10C,0.100000*%
%ADD11C,0.120000*%
%ADD12C,0.150000*%
G04 APERTURE END LIST*
D10*
D11*
X147229723Y-104905722D02*
G75*
G03X147230000Y-100294420I-1179723J2305722D01*
G01*
X144870277Y-104905722D02*
G75*
G02X144870000Y-100294420I1179723J2305722D01*
G01*
X144870277Y-104905722D02*
G75*
G03X147230000Y-104905580I1179723J2305722D01*
G01*
X148600000Y-102600000D02*
X143500000Y-102600000D01*
X148600000Y-102640000D02*
X147030000Y-102640000D01*
X145070000Y-102640000D02*
X143500000Y-102640000D01*
X148599000Y-102680000D02*
X147030000Y-102680000D01*
X145070000Y-102680000D02*
X143501000Y-102680000D01*
X148598000Y-102720000D02*
X147030000Y-102720000D01*
X145070000Y-102720000D02*
X143502000Y-102720000D01*
X148596000Y-102760000D02*
X147030000Y-102760000D01*
X145070000Y-102760000D02*
X143504000Y-102760000D01*
X148593000Y-102800000D02*
X147030000Y-102800000D01*
X145070000Y-102800000D02*
X143507000Y-102800000D01*
X148589000Y-102840000D02*
X147030000Y-102840000D01*
X145070000Y-102840000D02*
X143511000Y-102840000D01*
X148585000Y-102880000D02*
X147030000Y-102880000D01*
X145070000Y-102880000D02*
X143515000Y-102880000D01*
X148581000Y-102920000D02*
X147030000Y-102920000D01*
X145070000Y-102920000D02*
X143519000Y-102920000D01*
X148575000Y-102960000D02*
X147030000Y-102960000D01*
X145070000Y-102960000D02*
X143525000Y-102960000D01*
X148569000Y-103000000D02*
X147030000Y-103000000D01*
X145070000Y-103000000D02*
X143531000Y-103000000D01*
X148563000Y-103040000D02*
X147030000Y-103040000D01*
X145070000Y-103040000D02*
X143537000Y-103040000D01*
X148556000Y-103080000D02*
X147030000Y-103080000D01*
X145070000Y-103080000D02*
X143544000Y-103080000D01*
X148548000Y-103120000D02*
X147030000Y-103120000D01*
X145070000Y-103120000D02*
X143552000Y-103120000D01*
X148539000Y-103160000D02*
X147030000Y-103160000D01*
X145070000Y-103160000D02*
X143561000Y-103160000D01*
X148530000Y-103200000D02*
X147030000Y-103200000D01*
X145070000Y-103200000D02*
X143570000Y-103200000D01*
X148520000Y-103240000D02*
X147030000Y-103240000D01*
X145070000Y-103240000D02*
X143580000Y-103240000D01*
X148510000Y-103280000D02*
X147030000Y-103280000D01*
X145070000Y-103280000D02*
X143590000Y-103280000D01*
X148498000Y-103321000D02*
X147030000Y-103321000D01*
X145070000Y-103321000D02*
X143602000Y-103321000D01*
X148486000Y-103361000D02*
X147030000Y-103361000D01*
X145070000Y-103361000D02*
X143614000Y-103361000D01*
X148474000Y-103401000D02*
X147030000Y-103401000D01*
X145070000Y-103401000D02*
X143626000Y-103401000D01*
X148460000Y-103441000D02*
X147030000Y-103441000D01*
X145070000Y-103441000D02*
X143640000Y-103441000D01*
X148446000Y-103481000D02*
X147030000Y-103481000D01*
X145070000Y-103481000D02*
X143654000Y-103481000D01*
X148432000Y-103521000D02*
X147030000Y-103521000D01*
X145070000Y-103521000D02*
X143668000Y-103521000D01*
X148416000Y-103561000D02*
X147030000Y-103561000D01*
X145070000Y-103561000D02*
X143684000Y-103561000D01*
X148400000Y-103601000D02*
X147030000Y-103601000D01*
X145070000Y-103601000D02*
X143700000Y-103601000D01*
X148383000Y-103641000D02*
X147030000Y-103641000D01*
X145070000Y-103641000D02*
X143717000Y-103641000D01*
X148365000Y-103681000D02*
X147030000Y-103681000D01*
X145070000Y-103681000D02*
X143735000Y-103681000D01*
X148346000Y-103721000D02*
X147030000Y-103721000D01*
X145070000Y-103721000D02*
X143754000Y-103721000D01*
X148326000Y-103761000D02*
X147030000Y-103761000D01*
X145070000Y-103761000D02*
X143774000Y-103761000D01*
X148306000Y-103801000D02*
X147030000Y-103801000D01*
X145070000Y-103801000D02*
X143794000Y-103801000D01*
X148284000Y-103841000D02*
X147030000Y-103841000D01*
X145070000Y-103841000D02*
X143816000Y-103841000D01*
X148262000Y-103881000D02*
X147030000Y-103881000D01*
X145070000Y-103881000D02*
X143838000Y-103881000D01*
X148239000Y-103921000D02*
X147030000Y-103921000D01*
X145070000Y-103921000D02*
X143861000Y-103921000D01*
X148215000Y-103961000D02*
X147030000Y-103961000D01*
X145070000Y-103961000D02*
X143885000Y-103961000D01*
X148190000Y-104001000D02*
X147030000Y-104001000D01*
X145070000Y-104001000D02*
X143910000Y-104001000D01*
X148163000Y-104041000D02*
X147030000Y-104041000D01*
X145070000Y-104041000D02*
X143937000Y-104041000D01*
X148136000Y-104081000D02*
X147030000Y-104081000D01*
X145070000Y-104081000D02*
X143964000Y-104081000D01*
X148108000Y-104121000D02*
X147030000Y-104121000D01*
X145070000Y-104121000D02*
X143992000Y-104121000D01*
X148078000Y-104161000D02*
X147030000Y-104161000D01*
X145070000Y-104161000D02*
X144022000Y-104161000D01*
X148047000Y-104201000D02*
X147030000Y-104201000D01*
X145070000Y-104201000D02*
X144053000Y-104201000D01*
X148015000Y-104241000D02*
X147030000Y-104241000D01*
X145070000Y-104241000D02*
X144085000Y-104241000D01*
X147982000Y-104281000D02*
X147030000Y-104281000D01*
X145070000Y-104281000D02*
X144118000Y-104281000D01*
X147947000Y-104321000D02*
X147030000Y-104321000D01*
X145070000Y-104321000D02*
X144153000Y-104321000D01*
X147911000Y-104361000D02*
X147030000Y-104361000D01*
X145070000Y-104361000D02*
X144189000Y-104361000D01*
X147873000Y-104401000D02*
X147030000Y-104401000D01*
X145070000Y-104401000D02*
X144227000Y-104401000D01*
X147833000Y-104441000D02*
X147030000Y-104441000D01*
X145070000Y-104441000D02*
X144267000Y-104441000D01*
X147792000Y-104481000D02*
X147030000Y-104481000D01*
X145070000Y-104481000D02*
X144308000Y-104481000D01*
X147749000Y-104521000D02*
X147030000Y-104521000D01*
X145070000Y-104521000D02*
X144351000Y-104521000D01*
X147704000Y-104561000D02*
X147030000Y-104561000D01*
X145070000Y-104561000D02*
X144396000Y-104561000D01*
X147656000Y-104601000D02*
X144444000Y-104601000D01*
X147606000Y-104641000D02*
X144494000Y-104641000D01*
X147554000Y-104681000D02*
X144546000Y-104681000D01*
X147498000Y-104721000D02*
X144602000Y-104721000D01*
X147440000Y-104761000D02*
X144660000Y-104761000D01*
X147377000Y-104801000D02*
X144723000Y-104801000D01*
X147311000Y-104841000D02*
X144789000Y-104841000D01*
X147239000Y-104881000D02*
X144861000Y-104881000D01*
X147162000Y-104921000D02*
X144938000Y-104921000D01*
X147078000Y-104961000D02*
X145022000Y-104961000D01*
X146984000Y-105001000D02*
X145116000Y-105001000D01*
X146879000Y-105041000D02*
X145221000Y-105041000D01*
X146757000Y-105081000D02*
X145343000Y-105081000D01*
X146609000Y-105121000D02*
X145491000Y-105121000D01*
X146404000Y-105161000D02*
X145696000Y-105161000D01*
X146050000Y-99400000D02*
X146050000Y-100600000D01*
X146700000Y-100000000D02*
X145400000Y-100000000D01*
X151980000Y-107180000D02*
X151980000Y-106180000D01*
X150280000Y-106180000D02*
X150280000Y-107180000D01*
X165950000Y-102100000D02*
X165950000Y-101100000D01*
X164250000Y-101100000D02*
X164250000Y-102100000D01*
X171030000Y-102100000D02*
X171030000Y-101100000D01*
X169330000Y-101100000D02*
X169330000Y-102100000D01*
X134700000Y-106200000D02*
X125900000Y-106200000D01*
X125900000Y-106200000D02*
X125900000Y-97000000D01*
X140600000Y-103500000D02*
X140600000Y-106200000D01*
X140600000Y-106200000D02*
X138700000Y-106200000D01*
X125900000Y-97000000D02*
X140600000Y-97000000D01*
X140600000Y-97000000D02*
X140600000Y-99600000D01*
X182820000Y-106740000D02*
X185480000Y-106740000D01*
X182820000Y-104140000D02*
X182820000Y-106740000D01*
X185480000Y-104140000D02*
X185480000Y-106740000D01*
X182820000Y-104140000D02*
X185480000Y-104140000D01*
X182820000Y-102870000D02*
X182820000Y-101540000D01*
X182820000Y-101540000D02*
X184150000Y-101540000D01*
X154860000Y-107990000D02*
X154860000Y-97750000D01*
X159501000Y-107990000D02*
X159501000Y-97750000D01*
X154860000Y-107990000D02*
X159501000Y-107990000D01*
X154860000Y-97750000D02*
X159501000Y-97750000D01*
X156370000Y-107990000D02*
X156370000Y-97750000D01*
X154860000Y-104720000D02*
X156370000Y-104720000D01*
X154860000Y-101019000D02*
X156370000Y-101019000D01*
D12*
X150217143Y-102766666D02*
X150264762Y-102814285D01*
X150312381Y-102957142D01*
X150312381Y-103052380D01*
X150264762Y-103195238D01*
X150169524Y-103290476D01*
X150074286Y-103338095D01*
X149883810Y-103385714D01*
X149740952Y-103385714D01*
X149550476Y-103338095D01*
X149455238Y-103290476D01*
X149360000Y-103195238D01*
X149312381Y-103052380D01*
X149312381Y-102957142D01*
X149360000Y-102814285D01*
X149407619Y-102766666D01*
X150312381Y-101814285D02*
X150312381Y-102385714D01*
X150312381Y-102100000D02*
X149312381Y-102100000D01*
X149455238Y-102195238D01*
X149550476Y-102290476D01*
X149598095Y-102385714D01*
X152987143Y-106846666D02*
X153034762Y-106894285D01*
X153082381Y-107037142D01*
X153082381Y-107132380D01*
X153034762Y-107275238D01*
X152939524Y-107370476D01*
X152844286Y-107418095D01*
X152653810Y-107465714D01*
X152510952Y-107465714D01*
X152320476Y-107418095D01*
X152225238Y-107370476D01*
X152130000Y-107275238D01*
X152082381Y-107132380D01*
X152082381Y-107037142D01*
X152130000Y-106894285D01*
X152177619Y-106846666D01*
X152177619Y-106465714D02*
X152130000Y-106418095D01*
X152082381Y-106322857D01*
X152082381Y-106084761D01*
X152130000Y-105989523D01*
X152177619Y-105941904D01*
X152272857Y-105894285D01*
X152368095Y-105894285D01*
X152510952Y-105941904D01*
X153082381Y-106513333D01*
X153082381Y-105894285D01*
X166957143Y-101766666D02*
X167004762Y-101814285D01*
X167052381Y-101957142D01*
X167052381Y-102052380D01*
X167004762Y-102195238D01*
X166909524Y-102290476D01*
X166814286Y-102338095D01*
X166623810Y-102385714D01*
X166480952Y-102385714D01*
X166290476Y-102338095D01*
X166195238Y-102290476D01*
X166100000Y-102195238D01*
X166052381Y-102052380D01*
X166052381Y-101957142D01*
X166100000Y-101814285D01*
X166147619Y-101766666D01*
X166052381Y-101433333D02*
X166052381Y-100814285D01*
X166433333Y-101147619D01*
X166433333Y-101004761D01*
X166480952Y-100909523D01*
X166528571Y-100861904D01*
X166623810Y-100814285D01*
X166861905Y-100814285D01*
X166957143Y-100861904D01*
X167004762Y-100909523D01*
X167052381Y-101004761D01*
X167052381Y-101290476D01*
X167004762Y-101385714D01*
X166957143Y-101433333D01*
X172037143Y-101766666D02*
X172084762Y-101814285D01*
X172132381Y-101957142D01*
X172132381Y-102052380D01*
X172084762Y-102195238D01*
X171989524Y-102290476D01*
X171894286Y-102338095D01*
X171703810Y-102385714D01*
X171560952Y-102385714D01*
X171370476Y-102338095D01*
X171275238Y-102290476D01*
X171180000Y-102195238D01*
X171132381Y-102052380D01*
X171132381Y-101957142D01*
X171180000Y-101814285D01*
X171227619Y-101766666D01*
X171465714Y-100909523D02*
X172132381Y-100909523D01*
X171084762Y-101147619D02*
X171799048Y-101385714D01*
X171799048Y-100766666D01*
X130916667Y-106802381D02*
X130916667Y-107516667D01*
X130869047Y-107659524D01*
X130773809Y-107754762D01*
X130630952Y-107802381D01*
X130535714Y-107802381D01*
X131916667Y-107802381D02*
X131345238Y-107802381D01*
X131630952Y-107802381D02*
X131630952Y-106802381D01*
X131535714Y-106945238D01*
X131440476Y-107040476D01*
X131345238Y-107088095D01*
X183816667Y-99992381D02*
X183816667Y-100706667D01*
X183769047Y-100849524D01*
X183673809Y-100944762D01*
X183530952Y-100992381D01*
X183435714Y-100992381D01*
X184245238Y-100087619D02*
X184292857Y-100040000D01*
X184388095Y-99992381D01*
X184626191Y-99992381D01*
X184721429Y-100040000D01*
X184769048Y-100087619D01*
X184816667Y-100182857D01*
X184816667Y-100278095D01*
X184769048Y-100420952D01*
X184197619Y-100992381D01*
X184816667Y-100992381D01*
X153312381Y-103631905D02*
X154121905Y-103631905D01*
X154217143Y-103584286D01*
X154264762Y-103536667D01*
X154312381Y-103441429D01*
X154312381Y-103250952D01*
X154264762Y-103155714D01*
X154217143Y-103108095D01*
X154121905Y-103060476D01*
X153312381Y-103060476D01*
X154312381Y-102060476D02*
X154312381Y-102631905D01*
X154312381Y-102346191D02*
X153312381Y-102346191D01*
X153455238Y-102441429D01*
X153550476Y-102536667D01*
X153598095Y-102631905D01*
M02*
